<svg width="58" height="79" viewBox="0 0 58 79" fill="none" xmlns="http://www.w3.org/2000/svg">
<path fill-rule="evenodd" clip-rule="evenodd" d="M2.5262 2.5262C0 5.05241 0 9.11827 0 17.25V28.75C0 36.8817 0 40.9476 2.5262 43.4738C5.05241 46 9.11827 46 17.25 46H28.75C36.8817 46 40.9476 46 43.4738 43.4738C46 40.9476 46 36.8817 46 28.75V17.25C46 9.11827 46 5.05241 43.4738 2.5262C40.9476 0 36.8817 0 28.75 0H17.25C9.11827 0 5.05241 0 2.5262 2.5262ZM11.4811 14.4099C9.58715 14.4099 8.05 12.8571 8.05 10.9425C8.05 9.02789 9.58715 7.475 11.4811 7.475C13.3751 7.475 14.9123 9.02789 14.9123 10.9425C14.9123 12.8571 13.3771 14.4099 11.4811 14.4099ZM8.54016 38.525V16.9024H14.4221V38.525H8.54016ZM32.068 38.525H37.95V25.2389C37.95 14.9132 26.9644 15.2886 24.2254 20.3719V16.9024H18.3434V38.525H24.2254V27.5093C24.2254 21.3901 32.068 20.8889 32.068 27.5093V38.525Z" fill="url(#paint0_linear_3995_33)"/>
<path d="M2.646 71.712H5.936V73H1.05V63.27H2.646V71.712ZM8.0827 64.264C7.79337 64.264 7.5507 64.166 7.3547 63.97C7.1587 63.774 7.0607 63.5313 7.0607 63.242C7.0607 62.9527 7.1587 62.71 7.3547 62.514C7.5507 62.318 7.79337 62.22 8.0827 62.22C8.3627 62.22 8.6007 62.318 8.7967 62.514C8.9927 62.71 9.0907 62.9527 9.0907 63.242C9.0907 63.5313 8.9927 63.774 8.7967 63.97C8.6007 64.166 8.3627 64.264 8.0827 64.264ZM8.8667 65.286V73H7.2707V65.286H8.8667ZM14.8541 65.16C15.4608 65.16 16.0021 65.286 16.4781 65.538C16.9634 65.79 17.3414 66.1633 17.6121 66.658C17.8828 67.1527 18.0181 67.75 18.0181 68.45V73H16.4361V68.688C16.4361 67.9973 16.2634 67.47 15.9181 67.106C15.5728 66.7327 15.1014 66.546 14.5041 66.546C13.9068 66.546 13.4308 66.7327 13.0761 67.106C12.7308 67.47 12.5581 67.9973 12.5581 68.688V73H10.9621V65.286H12.5581V66.168C12.8194 65.8507 13.1508 65.6033 13.5521 65.426C13.9628 65.2487 14.3968 65.16 14.8541 65.16ZM23.1059 69.15L26.6619 73H24.5059L21.6499 69.682V73H20.0539V62.64H21.6499V68.66L24.4499 65.286H26.6619L23.1059 69.15ZM34.8759 68.954C34.8759 69.2433 34.8572 69.5047 34.8199 69.738H28.9259C28.9725 70.354 29.2012 70.8487 29.6119 71.222C30.0225 71.5953 30.5265 71.782 31.1239 71.782C31.9825 71.782 32.5892 71.4227 32.9439 70.704H34.6659C34.4325 71.4133 34.0079 71.9967 33.3919 72.454C32.7852 72.902 32.0292 73.126 31.1239 73.126C30.3865 73.126 29.7239 72.9627 29.1359 72.636C28.5572 72.3 28.0999 71.8333 27.7639 71.236C27.4372 70.6293 27.2739 69.9293 27.2739 69.136C27.2739 68.3427 27.4325 67.6473 27.7499 67.05C28.0765 66.4433 28.5292 65.9767 29.1079 65.65C29.6959 65.3233 30.3679 65.16 31.1239 65.16C31.8519 65.16 32.5005 65.3187 33.0699 65.636C33.6392 65.9533 34.0825 66.4013 34.3999 66.98C34.7172 67.5493 34.8759 68.2073 34.8759 68.954ZM33.2099 68.45C33.2005 67.862 32.9905 67.3907 32.5799 67.036C32.1692 66.6813 31.6605 66.504 31.0539 66.504C30.5032 66.504 30.0319 66.6813 29.6399 67.036C29.2479 67.3813 29.0145 67.8527 28.9399 68.45H33.2099ZM35.9145 69.108C35.9145 68.3333 36.0732 67.6473 36.3905 67.05C36.7172 66.4527 37.1558 65.9907 37.7065 65.664C38.2665 65.328 38.8872 65.16 39.5685 65.16C40.0725 65.16 40.5672 65.272 41.0525 65.496C41.5472 65.7107 41.9392 66 42.2285 66.364V62.64H43.8385V73H42.2285V71.838C41.9672 72.2113 41.6032 72.5193 41.1365 72.762C40.6792 73.0047 40.1518 73.126 39.5545 73.126C38.8825 73.126 38.2665 72.958 37.7065 72.622C37.1558 72.2767 36.7172 71.8007 36.3905 71.194C36.0732 70.578 35.9145 69.8827 35.9145 69.108ZM42.2285 69.136C42.2285 68.604 42.1165 68.142 41.8925 67.75C41.6778 67.358 41.3932 67.0593 41.0385 66.854C40.6838 66.6487 40.3012 66.546 39.8905 66.546C39.4798 66.546 39.0972 66.6487 38.7425 66.854C38.3878 67.05 38.0985 67.344 37.8745 67.736C37.6598 68.1187 37.5525 68.576 37.5525 69.108C37.5525 69.64 37.6598 70.1067 37.8745 70.508C38.0985 70.9093 38.3878 71.2173 38.7425 71.432C39.1065 71.6373 39.4892 71.74 39.8905 71.74C40.3012 71.74 40.6838 71.6373 41.0385 71.432C41.3932 71.2267 41.6778 70.928 41.8925 70.536C42.1165 70.1347 42.2285 69.668 42.2285 69.136Z" fill="#181818"/>
<path d="M47.5308 63.27V73H45.9348V63.27H47.5308ZM53.5182 65.16C54.1248 65.16 54.6662 65.286 55.1422 65.538C55.6275 65.79 56.0055 66.1633 56.2762 66.658C56.5468 67.1527 56.6822 67.75 56.6822 68.45V73H55.1002V68.688C55.1002 67.9973 54.9275 67.47 54.5822 67.106C54.2368 66.7327 53.7655 66.546 53.1682 66.546C52.5708 66.546 52.0948 66.7327 51.7402 67.106C51.3948 67.47 51.2222 67.9973 51.2222 68.688V73H49.6262V65.286H51.2222V66.168C51.4835 65.8507 51.8148 65.6033 52.2162 65.426C52.6268 65.2487 53.0608 65.16 53.5182 65.16Z" fill="#0275B1"/>
<defs>
<linearGradient id="paint0_linear_3995_33" x1="23" y1="0" x2="23" y2="46" gradientUnits="userSpaceOnUse">
<stop stop-color="#0077B5"/>
<stop offset="1" stop-color="#0E6795"/>
</linearGradient>
</defs>
</svg>
